<svg xmlns="http://www.w3.org/2000/svg" width="560" height="220"><path fill="#F8F7F4" d="M560 205c0 8.25-6.75 15-15 15H15c-8.25 0-15-6.75-15-15V15C0 6.75 6.75 0 15 0h530c8.25 0 15 6.75 15 15v190z"/><g fill="#F8F7F4"><path d="M545 0H20.73L0 20.73V205c0 8.25 6.75 15 15 15h530c8.25 0 15-6.75 15-15V15c0-8.25-6.75-15-15-15zM10.25.79a15.1 15.1 0 0 0-9.46 9.46L10.25.79z"/></g><path fill="#92CDFF" d="M20.74 0H15c-1.66 0-3.25.28-4.74.78L.78 10.26C.28 11.76 0 13.35 0 15v5.74L20.74 0z"/><path fill="#FE9E90" d="M0 40.12L40.12 0h-9.7L0 30.42z"/><path fill="#92CDFF" d="M0 59.5L59.5 0h-9.69L0 49.81z"/><path fill="#FE9E90" d="M0 78.9L78.9 0h-9.7L0 69.2z"/><path fill="#92CDFF" d="M0 98.28L98.28 0h-9.7L0 88.58z"/><path fill="#FE9E90" d="M0 117.67L117.67 0h-9.7L0 107.97z"/><path fill="#92CDFF" d="M0 137.05L137.05 0h-9.7L0 127.36z"/><path fill="#FE9E90" d="M0 156.44L156.44 0h-9.7L0 146.75z"/><path fill="#92CDFF" d="M0 175.83L175.83 0h-9.7L0 166.13z"/><path fill="#FE9E90" d="M0 195.21L195.21 0h-9.69L0 185.52z"/><path fill="#92CDFF" d="M204.9 0L0 204.9v.1c0 2.75.76 5.32 2.06 7.54L214.6 0h-9.7z"/><path fill="#FE9E90" d="M14.04 219.95L233.99 0h-9.7L6.78 217.52c2.1 1.4 4.6 2.26 7.26 2.43z"/><path fill="#92CDFF" d="M33.38 220l220-220h-9.7l-220 220z"/><path fill="#FE9E90" d="M52.76 220l220-220h-9.7l-220 220z"/><path fill="#92CDFF" d="M72.15 220l220-220h-9.7l-220 220z"/><path fill="#FE9E90" d="M91.54 220l220-220h-9.7l-220 220z"/><path fill="#92CDFF" d="M110.92 220l220-220h-9.7l-220 220z"/><path fill="#FE9E90" d="M130.31 220l220-220h-9.7l-220 220z"/><path fill="#92CDFF" d="M149.7 220l220-220H360L140 220z"/><path fill="#FE9E90" d="M169.08 220l220-220h-9.69l-220 220z"/><path fill="#92CDFF" d="M188.47 220l220-220h-9.7l-220 220z"/><path fill="#FE9E90" d="M207.86 220l220-220h-9.7l-220 220z"/><path fill="#92CDFF" d="M227.25 220l220-220h-9.7l-220 220z"/><path fill="#FE9E90" d="M246.63 220l220-220h-9.7l-220 220z"/><path fill="#92CDFF" d="M266.02 220l220-220h-9.7l-220 220z"/><path fill="#FE9E90" d="M285.4 220l220-220h-9.69l-220 220z"/><path fill="#92CDFF" d="M304.8 220l220-220h-9.7l-220 220z"/><path fill="#FE9E90" d="M324.18 220l220-220h-9.7l-220 220z"/><path fill="#92CDFF" d="M343.57 220L557.22 6.35a15.18 15.18 0 0 0-5.14-4.56L333.88 220h9.69z"/><path fill="#FE9E90" d="M362.95 220L560 22.95V15c0-.56-.04-1.1-.1-1.64L353.26 220h9.7z"/><path fill="#92CDFF" d="M382.34 220L560 42.34v-9.7L372.65 220z"/><path fill="#FE9E90" d="M401.73 220L560 61.73v-9.7L392.04 220z"/><path fill="#92CDFF" d="M421.12 220L560 81.12v-9.7L411.42 220z"/><path fill="#FE9E90" d="M440.5 220L560 100.5v-9.7L430.81 220z"/><path fill="#92CDFF" d="M459.9 220L560 119.9v-9.7L450.2 220z"/><path fill="#FE9E90" d="M479.28 220L560 139.28v-9.7L469.58 220z"/><path fill="#92CDFF" d="M498.67 220L560 158.66v-9.69L488.97 220z"/><path fill="#FE9E90" d="M518.05 220L560 178.05v-9.7L508.36 220z"/><path fill="#92CDFF" d="M537.44 220L560 197.44v-9.7L527.75 220z"/><path fill="#FE9E90" d="M559.8 207.34l-12.46 12.46a15.05 15.05 0 0 0 12.46-12.47z"/></svg>